# xmcd
#
# Track frame offsets:
#	150
#	17203
#	34437
#	52563
#	77484
#	93308
#	110665
#	133105
#	149016
#	168571
#	186168
#	208229
#	237848
#	254513
#	271570
#	287356
#	308723
#	327853
#	345771
#
# Disc length: 4787
#
# Revision: 1
# Processed by: cddbd v1.5.1PL0 Copyright (c) Steve Scherf et al.
# Submitted via: audiograbber 1.82.02
# Normalized: r0:DSETVAR1
#
DISCID=0a12b113
DTITLE=Various Artist - Action Pac - Safe Sex 20
DYEAR=2003
DGENRE=R&B
TTITLE0=Musiq - Forthenight
TTITLE1=JS Feat. R. Kelly - Love Angel
TTITLE2=Kindred - Faraway
TTITLE3=Alicia Keys - You Don't Know My Name
TTITLE4=R. Kelly - Touched A Dream
TTITLE5=Avant - Read Your Mind
TTITLE6=Kem - Lover Calls
TTITLE7=Joe - More and More
TTITLE8=Jagged Edge - Walked Out Of Heaven
TTITLE9=Ginuwine - Love You More
TTITLE10=Vivian Green - What Is Love
TTITLE11=Floetry - Getting Late
TTITLE12=Jaheim - Backtight
TTITLE13=Ron Isley Feat. JS - Busted
TTITLE14=Destiny's Child - I Know
TTITLE15=Javier - Crazy
TTITLE16=Beyonce and Bilal - Everything I Do
TTITLE17=Dwele - Find A Way
TTITLE18=Mya - Fallin
EXTD=
EXTT0=
EXTT1=
EXTT2=
EXTT3=
EXTT4=
EXTT5=
EXTT6=
EXTT7=
EXTT8=
EXTT9=
EXTT10=
EXTT11=
EXTT12=
EXTT13=
EXTT14=
EXTT15=
EXTT16=
EXTT17=
EXTT18=
PLAYORDER=
